<svg width="25" height="25" viewBox="0 0 25 25" fill="none" xmlns="http://www.w3.org/2000/svg">
<path d="M20 20C20.663 20 21.2989 20.2634 21.7678 20.7322C22.2366 21.2011 22.5 21.837 22.5 22.5C22.5 23.163 22.2366 23.7989 21.7678 24.2678C21.2989 24.7366 20.663 25 20 25C18.6125 25 17.5 23.875 17.5 22.5C17.5 21.1125 18.6125 20 20 20ZM0 0H4.0875L5.2625 2.5H23.75C24.0815 2.5 24.3995 2.6317 24.6339 2.86612C24.8683 3.10054 25 3.41848 25 3.75C25 3.9625 24.9375 4.175 24.85 4.375L20.375 12.4625C19.95 13.225 19.125 13.75 18.1875 13.75H8.875L7.75 15.7875L7.7125 15.9375C7.7125 16.0204 7.74542 16.0999 7.80403 16.1585C7.86263 16.2171 7.94212 16.25 8.025 16.25H22.5V18.75H7.5C6.1125 18.75 5 17.625 5 16.25C5 15.8125 5.1125 15.4 5.3 15.05L7 11.9875L2.5 2.5H0V0ZM7.5 20C8.16304 20 8.79893 20.2634 9.26777 20.7322C9.73661 21.2011 10 21.837 10 22.5C10 23.163 9.73661 23.7989 9.26777 24.2678C8.79893 24.7366 8.16304 25 7.5 25C6.1125 25 5 23.875 5 22.5C5 21.1125 6.1125 20 7.5 20ZM18.75 11.25L22.225 5H6.425L9.375 11.25H18.75Z" fill="#141414"/>
</svg>
