<svg width="26" height="26" viewBox="0 0 26 26" fill="none" xmlns="http://www.w3.org/2000/svg">
<path d="M20.8 20.8C21.4896 20.8 22.1509 21.0739 22.6385 21.5615C23.1261 22.0491 23.4 22.7104 23.4 23.4C23.4 24.0896 23.1261 24.7509 22.6385 25.2385C22.1509 25.7261 21.4896 26 20.8 26C19.357 26 18.2 24.83 18.2 23.4C18.2 21.957 19.357 20.8 20.8 20.8ZM0 0H4.251L5.473 2.6H24.7C25.0448 2.6 25.3754 2.73696 25.6192 2.98076C25.863 3.22456 26 3.55522 26 3.9C26 4.121 25.935 4.342 25.844 4.55L21.19 12.961C20.748 13.754 19.89 14.3 18.915 14.3H9.23L8.06 16.419L8.021 16.575C8.021 16.6612 8.05524 16.7439 8.11619 16.8048C8.17714 16.8658 8.2598 16.9 8.346 16.9H23.4V19.5H7.8C6.357 19.5 5.2 18.33 5.2 16.9C5.2 16.445 5.317 16.016 5.512 15.652L7.28 12.467L2.6 2.6H0V0ZM7.8 20.8C8.48956 20.8 9.15088 21.0739 9.63848 21.5615C10.1261 22.0491 10.4 22.7104 10.4 23.4C10.4 24.0896 10.1261 24.7509 9.63848 25.2385C9.15088 25.7261 8.48956 26 7.8 26C6.357 26 5.2 24.83 5.2 23.4C5.2 21.957 6.357 20.8 7.8 20.8ZM19.5 11.7L23.114 5.2H6.682L9.75 11.7H19.5Z" fill="white"/>
</svg>
