<svg width="121" height="33" viewBox="0 0 121 33" fill="none" xmlns="http://www.w3.org/2000/svg">
<path d="M47.29 16.19C47.29 17.7153 46.96 19.072 46.3 20.26C45.6547 21.4333 44.716 22.35 43.484 23.01C42.2667 23.67 40.8293 24 39.172 24H33.298V8.446H39.172C40.844 8.446 42.2887 8.76867 43.506 9.414C44.7233 10.0593 45.6547 10.9687 46.3 12.142C46.96 13.3153 47.29 14.6647 47.29 16.19ZM38.842 20.634C40.3087 20.634 41.4453 20.2453 42.252 19.468C43.0733 18.6907 43.484 17.598 43.484 16.19C43.484 14.782 43.0733 13.6893 42.252 12.912C41.4453 12.1347 40.3087 11.746 38.842 11.746H37.06V20.634H38.842ZM55.1748 11.57C56.3921 11.57 57.4774 11.8267 58.4308 12.34C59.3988 12.8387 60.1541 13.5647 60.6968 14.518C61.2541 15.4713 61.5328 16.586 61.5328 17.862C61.5328 19.138 61.2541 20.2527 60.6968 21.206C60.1541 22.1593 59.3988 22.8927 58.4308 23.406C57.4774 23.9047 56.3921 24.154 55.1748 24.154C53.9574 24.154 52.8648 23.9047 51.8968 23.406C50.9288 22.8927 50.1661 22.1593 49.6088 21.206C49.0661 20.2527 48.7948 19.138 48.7948 17.862C48.7948 16.586 49.0661 15.4713 49.6088 14.518C50.1661 13.5647 50.9288 12.8387 51.8968 12.34C52.8648 11.8267 53.9574 11.57 55.1748 11.57ZM55.1748 14.826C54.4561 14.826 53.8474 15.09 53.3488 15.618C52.8648 16.1313 52.6228 16.8793 52.6228 17.862C52.6228 18.8447 52.8648 19.5927 53.3488 20.106C53.8474 20.6193 54.4561 20.876 55.1748 20.876C55.8934 20.876 56.4948 20.6193 56.9788 20.106C57.4628 19.5927 57.7048 18.8447 57.7048 17.862C57.7048 16.8793 57.4628 16.1313 56.9788 15.618C56.4948 15.09 55.8934 14.826 55.1748 14.826ZM69.0275 11.57C70.6115 11.57 71.9389 12.01 73.0095 12.89C74.0802 13.7553 74.7549 14.9507 75.0335 16.476H71.0515C70.9342 15.948 70.6922 15.5373 70.3255 15.244C69.9589 14.9507 69.4969 14.804 68.9395 14.804C68.2795 14.804 67.7369 15.068 67.3115 15.596C66.8862 16.1093 66.6735 16.8647 66.6735 17.862C66.6735 18.8593 66.8862 19.622 67.3115 20.15C67.7369 20.6633 68.2795 20.92 68.9395 20.92C69.4969 20.92 69.9589 20.7733 70.3255 20.48C70.6922 20.1867 70.9342 19.776 71.0515 19.248H75.0335C74.7549 20.7733 74.0802 21.976 73.0095 22.856C71.9389 23.7213 70.6115 24.154 69.0275 24.154C67.8249 24.154 66.7542 23.9047 65.8155 23.406C64.8915 22.8927 64.1655 22.1593 63.6375 21.206C63.1095 20.2527 62.8455 19.138 62.8455 17.862C62.8455 16.5713 63.1022 15.4567 63.6155 14.518C64.1435 13.5647 64.8769 12.8387 65.8155 12.34C66.7542 11.8267 67.8249 11.57 69.0275 11.57ZM88.6572 17.532C88.6572 17.84 88.6206 18.1773 88.5472 18.544H80.0332C80.0772 19.468 80.3119 20.1353 80.7372 20.546C81.1626 20.942 81.7052 21.14 82.3652 21.14C82.9226 21.14 83.3846 21.0007 83.7512 20.722C84.1179 20.4433 84.3599 20.084 84.4772 19.644H88.4592C88.2979 20.5093 87.9459 21.2867 87.4032 21.976C86.8606 22.6507 86.1712 23.186 85.3352 23.582C84.4992 23.9633 83.5679 24.154 82.5412 24.154C81.3386 24.154 80.2679 23.9047 79.3292 23.406C78.4052 22.8927 77.6792 22.1593 77.1512 21.206C76.6232 20.2527 76.3592 19.138 76.3592 17.862C76.3592 16.5713 76.6159 15.4567 77.1292 14.518C77.6572 13.5647 78.3906 12.8387 79.3292 12.34C80.2679 11.8267 81.3386 11.57 82.5412 11.57C83.7586 11.57 84.8292 11.8193 85.7532 12.318C86.6772 12.8167 87.3886 13.5207 87.8872 14.43C88.4006 15.3247 88.6572 16.3587 88.6572 17.532ZM84.8512 16.96C84.8659 16.1533 84.6459 15.552 84.1912 15.156C83.7512 14.7453 83.2012 14.54 82.5412 14.54C81.8519 14.54 81.2799 14.7453 80.8252 15.156C80.3706 15.5667 80.1139 16.168 80.0552 16.96H84.8512ZM94.3803 14.034C94.8496 13.286 95.451 12.692 96.1843 12.252C96.9323 11.812 97.739 11.592 98.6043 11.592V15.618H97.5263C96.529 15.618 95.7516 15.8307 95.1943 16.256C94.6516 16.6813 94.3803 17.4 94.3803 18.412V24H90.6183V11.724H94.3803V14.034ZM99.8269 8.27C99.8269 7.698 100.032 7.22867 100.443 6.862C100.854 6.48067 101.396 6.29 102.071 6.29C102.746 6.29 103.288 6.48067 103.699 6.862C104.11 7.22867 104.315 7.698 104.315 8.27C104.315 8.82733 104.11 9.29667 103.699 9.678C103.288 10.0447 102.746 10.228 102.071 10.228C101.396 10.228 100.854 10.0447 100.443 9.678C100.032 9.29667 99.8269 8.82733 99.8269 8.27ZM103.941 11.724V24H100.179V11.724H103.941ZM111.202 11.57C112.141 11.57 112.948 11.7827 113.622 12.208C114.297 12.6333 114.796 13.2127 115.118 13.946V11.724H118.858V24H115.118V21.778C114.796 22.5113 114.297 23.0907 113.622 23.516C112.948 23.9413 112.141 24.154 111.202 24.154C110.19 24.154 109.281 23.9047 108.474 23.406C107.682 22.8927 107.052 22.1593 106.582 21.206C106.128 20.2527 105.9 19.138 105.9 17.862C105.9 16.5713 106.128 15.4567 106.582 14.518C107.052 13.5647 107.682 12.8387 108.474 12.34C109.281 11.8267 110.19 11.57 111.202 11.57ZM112.412 14.87C111.606 14.87 110.953 15.134 110.454 15.662C109.97 16.19 109.728 16.9233 109.728 17.862C109.728 18.8007 109.97 19.534 110.454 20.062C110.953 20.59 111.606 20.854 112.412 20.854C113.204 20.854 113.85 20.5827 114.348 20.04C114.862 19.4973 115.118 18.7713 115.118 17.862C115.118 16.938 114.862 16.212 114.348 15.684C113.85 15.1413 113.204 14.87 112.412 14.87Z" fill="#141414"/>
<path d="M14.6707 1C15.641 1 16.5716 1.38545 17.2577 2.07156C17.9438 2.75767 18.3293 3.68823 18.3293 4.65854C18.3293 5.62884 17.9438 6.5594 17.2577 7.24551C16.5716 7.93162 15.641 8.31707 14.6707 8.31707C13.7004 8.31707 12.7699 7.93162 12.0838 7.24551C11.3976 6.5594 11.0122 5.62884 11.0122 4.65854C11.0122 3.68823 11.3976 2.75767 12.0838 2.07156C12.7699 1.38545 13.7004 1 14.6707 1V1ZM20.3341 6.12195C23.4512 6.12195 26.378 9.04878 26.378 11.9756C30.3293 11.9756 30.3293 17.8293 26.378 17.8293H2.96341C-0.987805 17.8293 -0.987805 11.9756 2.96341 11.9756C2.96341 9.04878 5.89024 6.12195 9.00732 6.12195C9.65122 8.65366 11.9488 10.5122 14.6707 10.5122C17.3927 10.5122 19.6902 8.65366 20.3341 6.12195ZM4.42683 20.7561H8.81707L10.2805 31H7.35366L4.42683 20.7561ZM11.7439 20.7561H17.5976L16.1341 31H13.2073L11.7439 20.7561ZM20.5244 20.7561H24.9146L21.9878 31H19.061L20.5244 20.7561Z" fill="#F93042"/>
</svg>
